<svg width="16" height="14" viewBox="0 0 16 14" fill="none" xmlns="http://www.w3.org/2000/svg">
<rect width="3.1411" height="2.37771" rx="0.196319" fill="#B33220"/>
<rect x="3.53372" width="6.38037" height="2.37771" rx="0.196319" fill="#B33220"/>
<rect x="10.3067" width="5.69325" height="2.37771" rx="0.196319" fill="#B33220"/>
<rect width="3.1411" height="2.37771" rx="0.196319" transform="matrix(-1 0 0 1 16 2.87308)" fill="#B33220"/>
<rect width="6.38037" height="2.37771" rx="0.196319" transform="matrix(-1 0 0 1 12.4663 2.87308)" fill="#B33220"/>
<rect width="5.69325" height="2.37771" rx="0.196319" transform="matrix(-1 0 0 1 5.69327 2.87308)" fill="#B33220"/>
<rect y="5.74615" width="3.1411" height="2.37771" rx="0.196319" fill="#B33220"/>
<rect x="3.53372" y="5.74615" width="6.38037" height="2.37771" rx="0.196319" fill="#B33220"/>
<rect x="10.3067" y="5.74615" width="5.69325" height="2.37771" rx="0.196319" fill="#B33220"/>
<rect width="3.1411" height="2.37771" rx="0.196319" transform="matrix(-1 0 0 1 16 8.6192)" fill="#B33220"/>
<rect width="6.38037" height="2.37771" rx="0.196319" transform="matrix(-1 0 0 1 12.4663 8.6192)" fill="#B33220"/>
<rect width="5.69325" height="2.37771" rx="0.196319" transform="matrix(-1 0 0 1 5.69327 8.6192)" fill="#B33220"/>
<rect y="11.4922" width="3.1411" height="2.37771" rx="0.196319" fill="#B33220"/>
<rect x="3.53372" y="11.4922" width="6.38037" height="2.37771" rx="0.196319" fill="#B33220"/>
<rect x="10.3067" y="11.4922" width="5.69325" height="2.37771" rx="0.196319" fill="#B33220"/>
<path fill-rule="evenodd" clip-rule="evenodd" d="M7.24797 0.450775C5.16007 0.450775 3.4675 2.14335 3.4675 4.23124V9.52343C3.4675 11.6113 5.16007 13.3039 7.24797 13.3039H8.18711C10.275 13.3039 11.9676 11.6113 11.9676 9.52343V6.24218H9.06792V6.24219H7.90061C7.76142 6.24219 7.64858 6.35503 7.64858 6.49422V8.41528C7.64858 8.55447 7.76142 8.66731 7.90061 8.66731H9.06792V8.88726C9.06792 9.60447 8.48651 10.1859 7.7693 10.1859C7.05209 10.1859 6.47067 9.60447 6.47067 8.88726V4.69418C6.47067 3.97697 7.05209 3.39556 7.7693 3.39556C8.48651 3.39556 9.06792 3.97697 9.06792 4.69418V5.143L9.18222 5.2475L11.9676 4.47272V4.23124C11.9676 2.14335 10.275 0.450775 8.18711 0.450775H7.24797Z" fill="white"/>
</svg>
