<?xml version="1.0" encoding="UTF-8" standalone="no"?>
<svg
   xmlns:dc="http://purl.org/dc/elements/1.1/"
   xmlns:cc="http://creativecommons.org/ns#"
   xmlns:rdf="http://www.w3.org/1999/02/22-rdf-syntax-ns#"
   xmlns:svg="http://www.w3.org/2000/svg"
   xmlns="http://www.w3.org/2000/svg"
   xmlns:xlink="http://www.w3.org/1999/xlink"
   xmlns:sodipodi="http://sodipodi.sourceforge.net/DTD/sodipodi-0.dtd"
   xmlns:inkscape="http://www.inkscape.org/namespaces/inkscape"
   id="generated_logo_1"
   viewBox="0 0 346.97852 145.3418"
   version="1.1"
   sodipodi:docname="logo_transparent.svg"
   width="346.97852"
   height="145.3418">
  <metadata
     id="metadata52">
    <rdf:RDF>
      <cc:Work
         rdf:about="">
        <dc:format>image/svg+xml</dc:format>
        <dc:type
           rdf:resource="http://purl.org/dc/dcmitype/StillImage" />
      </cc:Work>
    </rdf:RDF>
  </metadata>
  <defs
     id="defs50" />
  <sodipodi:namedview
     pagecolor="#ffffff"
     bordercolor="#666666"
     borderopacity="1"
     objecttolerance="10"
     gridtolerance="10"
     guidetolerance="10"
     inkscape:pageopacity="0"
     inkscape:pageshadow="2"
     inkscape:window-width="640"
     inkscape:window-height="480"
     id="namedview48" />
  <style
     type="text/css"
     class="styleimportlogofontmain"
     id="style2">@import url(&quot;https://fonts.googleapis.com/css2?family=Audiowide:wght@400&quot;);#generated_logo_1 .maintypo { font-family: Audiowide; font-weight: 400; }</style>
  <style
     type="text/css"
     class="styleimportlogofontsub"
     id="style4">@import url(&quot;https://fonts.googleapis.com/css2?family=Open Sans:wght@300;400;700&quot;);#generated_logo_1 .subtypo { font-family: Open Sans; font-weight: 400; }</style>
  <style
     type="text/css"
     class="styleimportlogopos"
     id="style6" />
  <g
     id="logo-elements"
     transform="translate(32.720215,100)"
     transform-box="stroke-box">
    <g
       id="iconcontainer"
       transform="translate(140,-50)"
       transform-origin="center"
       transform-box="fill-box">
      <g
         class="iconBGGrpM"
         id="g16">
        <g
           class="iconBGGrp"
           transform="matrix(0.1,0,0,0.1,-50,-50)"
           id="g14">
          <g
             class="lg_icon_bg_"
             id="lg_icon_bg_8"
             stroke="none"
             stroke-width="1"
             fill="none"
             fill-rule="evenodd">
            <g
               id="0008">
              <path
                 id="FRAME"
                 style="fill:none"
                 d="M 0,0 V 1000 H 1000 V 0 Z" />
              <g
                 id="IconBG"
                 fill="#000000">
                <path
                   d="M 500,985 C 232.142,985 15,767.858 15,500 15,232.142 232.142,15 500,15 767.857,15 985,232.142 985,500 985,767.858 767.857,985 500,985 M 500,0 C 223.857,0 0,223.858 0,500 c 0,276.142 223.857,500 500,500 276.143,0 500,-223.858 500,-500 C 1000,223.858 776.143,0 500,0"
                   id="Fill-1" />
                <path
                   d="M 500,40 C 245.949,40 40,245.949 40,500 40,754.051 245.949,960 500,960 754.051,960 960,754.051 960,500 960,245.949 754.051,40 500,40"
                   id="Fill-3" />
              </g>
            </g>
          </g>
        </g>
      </g>
      <g
         class="iconGrpM"
         id="g34">
        <g
           class="iconGrp"
           transform="matrix(0.1,0,0,0.1,-50,-50)"
           id="g32">
          <g
             class="lg_icon"
             id="lg_icon_15"
             stroke="none"
             stroke-width="1"
             fill="none"
             fill-rule="evenodd">
            <g
               id="0015">
              <defs
                 id="defs19">
                <polygon
                   id="path-1"
                   points="0.00012696271,0 628.68761,0 628.68761,597.52285 0.00012696271,597.52285 " />
              </defs>
              <path
                 id="polygon21"
                 style="fill:none"
                 d="M 0,0 V 1000 H 1000 V 0 Z" />
              <g
                 id="Icon"
                 transform="translate(185.99987,201.00015)">
                <mask
                   id="mask-2"
                   fill="#ffffff">
                  <use
                     xlink:href="#path-1"
                     id="use23"
                     x="0"
                     y="0"
                     width="100%"
                     height="100%" />
                </mask>
                <g
                   id="Clip-2" />
                <path
                   d="m 400.01003,314.34405 54.296,-54.296 c 46.109,14.913 98.737,4.061 135.356,-32.558 36.935,-36.934 47.648,-90.152 32.159,-136.541997 l -28.667,28.666997 -48.544,48.544 -66.313,-17.768 -17.768,-66.312997 48.544,-48.543 28.667,-28.6680002 c -46.39,-15.49 -99.608,-4.776 -136.542,32.1580002 -36.62,36.62 -47.471,89.247997 -32.557,135.356997 l -54.297,54.296 -54.296,-54.296 c 14.913,-46.109 4.062,-98.736997 -32.558,-135.355997 C 190.55603,2.0920528 137.33803,-8.6219472 90.948027,6.8670528 l 28.667003,28.6680002 48.544,48.543 -17.768,66.312997 -66.313003,17.768 -48.544,-48.544 -28.667,-28.666997 c -15.49,46.389997 -4.776,99.607997 32.159,136.541997 36.619,36.62 89.247003,47.471 135.356003,32.557 l 54.296,54.297 -179.771003,179.771 c -23.656,23.655 -23.656,62.009 0,85.665 v 0.001 c 23.656,23.655 62.010003,23.655 85.666003,0 l 179.771,-179.771 179.77,179.771 c 23.656,23.656 62.01,23.656 85.667,0 v 0 c 23.655,-23.656 23.655,-62.01 0,-85.666 z"
                   id="path27"
                   fill="#ffffff" />
              </g>
            </g>
          </g>
        </g>
      </g>
    </g>
    <g
       id="textlines"
       transform="translate(65,50)">
      <g
         id="einsg">
        <g
           aria-label="NYA Contractors"
           id="eins"
           style="text-anchor:middle;text-rendering:geometricPrecision">
          <path
             d="m -73.230469,-6.8969727 q 0,0.4785157 -0.187988,0.8886719 -0.170898,0.4101563 -0.478516,0.7177735 Q -74.1875,-5 -74.597656,-4.8291016 q -0.410156,0.1708985 -0.871582,0.1708985 -0.410157,0 -0.837403,-0.1538086 -0.410156,-0.1538086 -0.734863,-0.4956055 L -93.276855,-22.260742 V -5 h -4.44336 v -22.609863 q 0,-0.683594 0.375977,-1.230469 0.393066,-0.563965 0.991211,-0.837402 0.632324,-0.256348 1.298828,-0.119629 0.666504,0.119629 1.145019,0.615234 l 16.235352,16.936035 v -17.260742 h 4.443359 z"
             style="font-weight:400;font-size:35px;font-family:Audiowide;letter-spacing:1;fill:#000000"
             id="path56" />
          <path
             d="m -43.70752,-21.303711 q 0,1.520996 -0.393066,2.717285 -0.375976,1.196289 -1.008301,2.119141 -0.632324,0.905762 -1.486816,1.555176 -0.837402,0.649414 -1.743164,1.07666 -0.905762,0.410156 -1.845703,0.598144 -0.922852,0.187989 -1.743164,0.187989 h -1.794434 V -5 h -4.477539 v -8.049316 h -1.777344 q -0.820312,0 -1.760254,-0.187989 -0.922851,-0.187988 -1.845703,-0.598144 -0.905762,-0.427246 -1.743164,-1.07666 -0.837402,-0.649414 -1.486816,-1.555176 -0.632324,-0.922852 -1.025391,-2.119141 -0.375976,-1.213379 -0.375976,-2.717285 v -8.203125 h 4.443359 v 8.203125 q 0,0.871582 0.273437,1.572266 0.273438,0.683593 0.769043,1.179199 0.495606,0.495605 1.196289,0.769043 0.717774,0.256348 1.589356,0.256348 h 8.015137 q 0.632324,-0.10254 1.298828,-0.256348 0.666504,-0.170899 1.213379,-0.563965 0.546875,-0.393066 0.905761,-1.09375 0.358887,-0.700684 0.358887,-1.862793 v -8.203125 h 4.443359 z"
             style="font-weight:400;font-size:35px;font-family:Audiowide;letter-spacing:1;fill:#000000"
             id="path58" />
          <path
             d="m -14.799805,-5 h -4.443359 v -6.015625 H -34.863281 V -5 h -4.44336 v -12.253418 q 0,-2.683105 0.922852,-4.938965 0.922852,-2.255859 2.563477,-3.879394 1.640625,-1.623535 3.879394,-2.529297 2.23877,-0.905762 4.887695,-0.905762 h 10.014649 q 0.461426,0 0.871582,0.170899 0.410156,0.170898 0.717773,0.478515 0.307617,0.307617 0.478516,0.717774 0.170898,0.410156 0.170898,0.871582 z m -20.063476,-10.458984 h 15.620117 v -9.604493 h -7.810059 q -0.205078,0 -0.871582,0.06836 -0.649414,0.05127 -1.520996,0.290527 -0.854492,0.239258 -1.811523,0.734863 -0.957031,0.495606 -1.760254,1.367188 -0.803223,0.871582 -1.333008,2.1875 -0.512695,1.298828 -0.512695,3.161621 z"
             style="font-weight:400;font-size:35px;font-family:Audiowide;letter-spacing:1;fill:#000000"
             id="path60" />
          <path
             d="M 25.703613,-5 H 9.6733398 Q 9.0581055,-5 8.340332,-5.1367187 7.6396484,-5.2905273 6.9389648,-5.5981445 6.2553711,-5.9057617 5.6230469,-6.3842773 4.9907227,-6.8798828 4.4951172,-7.5634766 4.0166016,-8.2641602 3.7260742,-9.1699219 3.4355469,-10.092773 3.4355469,-11.237793 v -12.03125 q 0,-0.615234 0.1367187,-1.315918 0.1538086,-0.717773 0.4614258,-1.401367 0.3076172,-0.700684 0.8032227,-1.333008 0.4956054,-0.632324 1.1791992,-1.11084 0.7006836,-0.495605 1.6064453,-0.786133 0.9057617,-0.290527 2.0507812,-0.290527 H 25.703613 v 4.443359 H 9.6733398 q -0.871582,0 -1.3330078,0.461426 -0.4614258,0.461426 -0.4614258,1.367188 v 11.99707 q 0,0.854492 0.4614258,1.3330078 0.4785157,0.4614258 1.3330078,0.4614258 H 25.703613 Z"
             style="font-weight:400;font-size:35px;font-family:Audiowide;letter-spacing:1;fill:#000000"
             id="path62" />
          <path
             d="m 50.338867,-11.237793 q 0,1.14502 -0.290527,2.0678711 -0.290528,0.9057617 -0.769043,1.6064453 -0.478516,0.6835938 -1.11084,1.1791993 -0.632324,0.4785156 -1.333008,0.7861328 -0.683594,0.3076172 -1.401367,0.4614258 Q 44.733398,-5 44.101074,-5 h -8.015137 q -0.922851,0 -2.016601,-0.324707 -1.09375,-0.3247071 -2.033691,-1.0595703 -0.922852,-0.7519532 -1.555176,-1.9311524 -0.615235,-1.1962891 -0.615235,-2.9223633 v -6.015625 q 0,-1.708984 0.615235,-2.888184 0.632324,-1.196289 1.555176,-1.931152 0.939941,-0.751953 2.033691,-1.07666 1.09375,-0.324707 2.016601,-0.324707 h 8.015137 q 1.708985,0 2.905274,0.615234 1.196289,0.615235 1.931152,1.555176 0.734863,0.922852 1.05957,2.016602 0.341797,1.09375 0.341797,2.033691 z m -4.443359,-5.981445 q 0,-0.922852 -0.461426,-1.367188 -0.461426,-0.444336 -1.333008,-0.444336 h -7.980957 q -0.888672,0 -1.350097,0.461426 -0.461426,0.444336 -0.461426,1.315918 v 6.015625 q 0,0.871582 0.461426,1.3330078 0.461425,0.4614258 1.350097,0.4614258 h 7.980957 q 0.905762,0 1.350098,-0.4614258 0.444336,-0.4614258 0.444336,-1.3330078 z"
             style="font-weight:400;font-size:35px;font-family:Audiowide;letter-spacing:1;fill:#000000"
             id="path64" />
          <path
             d="m 75.572266,-5 h -4.44336 v -10.253906 q 0,-0.871582 -0.307617,-1.555176 -0.290527,-0.700684 -0.803223,-1.196289 -0.512695,-0.495606 -1.213379,-0.751953 -0.683593,-0.273438 -1.486816,-0.273438 H 59.541992 V -5 h -4.443359 v -16.269531 q 0,-0.461426 0.170898,-0.854492 0.170899,-0.410157 0.478516,-0.700684 0.307617,-0.307617 0.717773,-0.478516 0.410157,-0.170898 0.871582,-0.170898 h 10.014649 q 0.837402,0 1.760254,0.187988 0.939941,0.187988 1.845703,0.615235 0.922851,0.410156 1.743164,1.05957 0.837402,0.632324 1.469726,1.555176 0.649414,0.905761 1.025391,2.10205 0.375977,1.19629 0.375977,2.700196 z"
             style="font-weight:400;font-size:35px;font-family:Audiowide;letter-spacing:1;fill:#000000"
             id="path66" />
          <path
             d="M 96.755371,-19.030762 H 88.996582 V -5 h -4.494629 v -14.030762 h -5.776367 v -4.443359 h 5.776367 v -6.032715 h 4.494629 v 6.032715 h 7.758789 z"
             style="font-weight:400;font-size:35px;font-family:Audiowide;letter-spacing:1;fill:#000000"
             id="path68" />
          <path
             d="m 116.81055,-19.030762 h -9.99756 q -0.90576,0 -1.36719,0.461426 -0.46142,0.444336 -0.46142,1.315918 V -5 h -4.44336 v -12.253418 q 0,-1.145019 0.29052,-2.050781 0.29053,-0.905762 0.76905,-1.589356 0.4956,-0.700683 1.12793,-1.179199 0.63232,-0.495605 1.31591,-0.803223 0.70069,-0.307617 1.40137,-0.444335 0.71777,-0.153809 1.33301,-0.153809 h 10.03174 z"
             style="font-weight:400;font-size:35px;font-family:Audiowide;letter-spacing:1;fill:#000000"
             id="path70" />
          <path
             d="m 138.35254,-11.118164 q 0,0.922851 -0.32471,1.9995117 -0.32471,1.0595703 -1.05957,1.9824218 -0.71777,0.9057618 -1.89697,1.5209961 Q 133.90918,-5 132.23437,-5 h -8.01513 q -0.92285,0 -1.99951,-0.324707 -1.05957,-0.3247071 -1.98243,-1.0424805 -0.90576,-0.7348633 -1.52099,-1.8969727 -0.61524,-1.1791992 -0.61524,-2.8540038 0,-0.922852 0.32471,-1.999512 0.32471,-1.07666 1.04248,-1.982422 0.73487,-0.922851 1.89697,-1.538086 1.1792,-0.615234 2.85401,-0.615234 h 8.01513 v 4.238281 h -8.01513 q -0.90576,0 -1.40137,0.563965 -0.4956,0.546875 -0.4956,1.367188 0,0.871582 0.56396,1.3671871 0.58106,0.4785156 1.36719,0.4785156 h 7.98095 q 0.90577,0 1.40137,-0.546875 0.49561,-0.5468747 0.49561,-1.3671877 v -6.203613 q 0,-0.871582 -0.54688,-1.384277 -0.52978,-0.512696 -1.3501,-0.512696 h -9.7583 v -4.221191 h 9.7583 q 0.92286,0 1.98243,0.324707 1.07666,0.324707 1.98242,1.05957 0.92285,0.717774 1.53808,1.896973 0.61524,1.162109 0.61524,2.836914 z"
             style="font-weight:400;font-size:35px;font-family:Audiowide;letter-spacing:1;fill:#000000"
             id="path72" />
          <path
             d="m 161.07373,-5 h -12.04834 q -0.92285,0 -2.0166,-0.324707 -1.09375,-0.3247071 -2.03369,-1.0595703 -0.92285,-0.7519532 -1.55518,-1.9311524 -0.61523,-1.1962891 -0.61523,-2.9223633 v -6.015625 q 0,-0.632324 0.13672,-1.333008 0.1538,-0.700683 0.46142,-1.384277 0.30762,-0.700684 0.78613,-1.333008 0.49561,-0.632324 1.1792,-1.11084 0.70069,-0.478515 1.60645,-0.769043 0.90576,-0.290527 2.05078,-0.290527 h 12.04834 v 4.443359 h -12.04834 q -0.87158,0 -1.33301,0.444336 -0.44433,0.444336 -0.44433,1.367188 v 5.981445 q 0,0.871582 0.46142,1.3330078 0.46143,0.4614258 1.3501,0.4614258 h 12.01416 z"
             style="font-weight:400;font-size:35px;font-family:Audiowide;letter-spacing:1;fill:#000000"
             id="path74" />
          <path
             d="m 182.58154,-19.030762 h -7.75879 V -5 h -4.49463 v -14.030762 h -5.77636 v -4.443359 h 5.77636 v -6.032715 h 4.49463 v 6.032715 h 7.75879 z"
             style="font-weight:400;font-size:35px;font-family:Audiowide;letter-spacing:1;fill:#000000"
             id="path76" />
          <path
             d="m 206.56738,-11.237793 q 0,1.14502 -0.29052,2.0678711 -0.29053,0.9057617 -0.76905,1.6064453 -0.47851,0.6835938 -1.11084,1.1791993 -0.63232,0.4785156 -1.33301,0.7861328 -0.68359,0.3076172 -1.40136,0.4614258 Q 200.96191,-5 200.32959,-5 h -8.01514 q -0.92285,0 -2.0166,-0.324707 -1.09375,-0.3247071 -2.03369,-1.0595703 -0.92285,-0.7519532 -1.55518,-1.9311524 -0.61523,-1.1962891 -0.61523,-2.9223633 v -6.015625 q 0,-1.708984 0.61523,-2.888184 0.63233,-1.196289 1.55518,-1.931152 0.93994,-0.751953 2.03369,-1.07666 1.09375,-0.324707 2.0166,-0.324707 h 8.01514 q 1.70898,0 2.90527,0.615234 1.19629,0.615235 1.93116,1.555176 0.73486,0.922852 1.05957,2.016602 0.34179,1.09375 0.34179,2.033691 z m -4.44336,-5.981445 q 0,-0.922852 -0.46142,-1.367188 -0.46143,-0.444336 -1.33301,-0.444336 h -7.98096 q -0.88867,0 -1.35009,0.461426 -0.46143,0.444336 -0.46143,1.315918 v 6.015625 q 0,0.871582 0.46143,1.3330078 0.46142,0.4614258 1.35009,0.4614258 h 7.98096 q 0.90576,0 1.3501,-0.4614258 0.44433,-0.4614258 0.44433,-1.3330078 z"
             style="font-weight:400;font-size:35px;font-family:Audiowide;letter-spacing:1;fill:#000000"
             id="path78" />
          <path
             d="m 227.49414,-19.030762 h -9.99756 q -0.90576,0 -1.36719,0.461426 -0.46142,0.444336 -0.46142,1.315918 V -5 h -4.44336 v -12.253418 q 0,-1.145019 0.29053,-2.050781 0.29052,-0.905762 0.76904,-1.589356 0.49561,-0.700683 1.12793,-1.179199 0.63232,-0.495605 1.31592,-0.803223 0.70068,-0.307617 1.40136,-0.444335 0.71778,-0.153809 1.33301,-0.153809 h 10.03174 z"
             style="font-weight:400;font-size:35px;font-family:Audiowide;letter-spacing:1;fill:#000000"
             id="path80" />
          <path
             d="m 249.2583,-11.237793 q 0,1.14502 -0.29053,2.0678711 -0.29052,0.9057617 -0.76904,1.6064453 -0.47852,0.6835938 -1.11084,1.1791993 -0.63232,0.4785156 -1.33301,0.7861328 -0.68359,0.3076172 -1.40136,0.4614258 Q 243.65283,-5 243.02051,-5 h -12.03125 v -4.4433594 h 11.99707 q 0.90576,0 1.36719,-0.4614258 0.46142,-0.4614258 0.46142,-1.3330078 -0.0855,-1.777344 -1.79443,-1.777344 h -6.88721 q -1.46973,0 -2.49512,-0.512695 -1.02539,-0.512695 -1.6748,-1.281738 -0.63233,-0.769043 -0.92285,-1.657715 -0.27344,-0.888672 -0.27344,-1.657715 0,-1.486816 0.52978,-2.495117 0.52979,-1.025391 1.33301,-1.657715 0.80323,-0.632324 1.74317,-0.905762 0.93994,-0.290527 1.76025,-0.290527 h 10.92041 v 4.443359 h -10.88623 q -0.3418,0 -0.54687,0.08545 -0.18799,0.06836 -0.29053,0.205078 -0.0855,0.119629 -0.10254,0.273437 -0.0171,0.136719 -0.0171,0.273438 0.0171,0.273437 0.10254,0.427246 0.0854,0.153808 0.20508,0.222168 0.13672,0.06836 0.29052,0.08545 0.1709,0 0.32471,0 h 6.88721 q 1.70898,0 2.90527,0.615234 1.19629,0.615235 1.93115,1.555176 0.73487,0.922852 1.05957,2.016602 0.3418,1.09375 0.3418,2.033691 z"
             style="font-weight:400;font-size:35px;font-family:Audiowide;letter-spacing:1;fill:#000000"
             id="path82" />
        </g>
      </g>
      <g
         id="zweig"
         transform="translate(0,5)">
        <g
           id="zwei"
           style="dominant-baseline:text-before-edge;text-anchor:middle;text-rendering:geometricPrecision" />
      </g>
    </g>
  </g>
</svg>
